<?xml version="1.0" encoding="UTF-8" standalone="no"?>
<!-- Created with Inkscape (http://www.inkscape.org/) -->

<svg
   width="234mm"
   height="63mm"
   viewBox="0 0 234 63"
   version="1.1"
   id="svg1592"
   inkscape:version="1.2.1 (9c6d41e410, 2022-07-14)"
   sodipodi:docname="logo without yanos.svg"
   xmlns:inkscape="http://www.inkscape.org/namespaces/inkscape"
   xmlns:sodipodi="http://sodipodi.sourceforge.net/DTD/sodipodi-0.dtd"
   xmlns="http://www.w3.org/2000/svg"
   xmlns:svg="http://www.w3.org/2000/svg">
  <sodipodi:namedview
     id="namedview1594"
     pagecolor="#ffffff"
     bordercolor="#666666"
     borderopacity="1.0"
     inkscape:pageshadow="2"
     inkscape:pageopacity="0.0"
     inkscape:pagecheckerboard="true"
     inkscape:document-units="mm"
     showgrid="false"
     inkscape:zoom="0.67081229"
     inkscape:cx="416.65903"
     inkscape:cy="562.00521"
     inkscape:window-width="3440"
     inkscape:window-height="1367"
     inkscape:window-x="-9"
     inkscape:window-y="-9"
     inkscape:window-maximized="1"
     inkscape:current-layer="layer1"
     inkscape:showpageshadow="2"
     inkscape:deskcolor="#d1d1d1" />
  <defs
     id="defs1589" />
  <g
     inkscape:label="Layer 1"
     inkscape:groupmode="layer"
     id="layer1">
    <path
       d="m 35.704809,15.170228 c 0.340368,0 0.677716,0.0096 1.013557,0.02619 l -6.938388,14.437798 c -0.924028,1.923388 -2.472908,4.371494 -1.562827,7.377541 1.64232,3.891171 5.700233,6.658131 10.424622,6.658131 6.17032,0 11.203471,-4.719401 11.203471,-10.503638 0,-0.180976 -0.204835,-0.541258 -0.01453,-0.538501 l 4.596629,0.05232 c 0,0.01389 7.56e-4,0.02766 7.56e-4,0.0415 0,9.666999 -8.41094,17.551379 -18.723338,17.551379 -10.312173,0 -18.722733,-7.88438 -18.722733,-17.551379 0,-9.667001 8.41056,-17.55137 18.722733,-17.55137 z"
       style="fill:#2e77ae;fill-rule:evenodd;stroke-width:0.730199"
       id="path794" />
    <path
       d="m 35.704809,10.040575 c 13.32614,0 24.195656,10.188961 24.195656,22.681022 0,12.493631 -10.869516,22.681091 -24.195656,22.681091 -13.326361,0 -24.195426,-10.18746 -24.195426,-22.681091 0,-12.492061 10.869065,-22.681022 24.195426,-22.681022 z m 0,0.977533 c 12.752578,0 23.152766,9.748515 23.152766,21.703489 0,11.953571 -10.400188,21.704911 -23.152766,21.704911 -12.752271,0 -23.152986,-9.75134 -23.152986,-21.704911 0,-11.954974 10.400715,-21.703489 23.152986,-21.703489 z"
       style="fill:#1b1918;fill-rule:evenodd;stroke-width:0.730199"
       id="path796" />
    <path
       d="m 38.810259,15.42693 8.267566,18.821943 c 0,4.13692 -3.599742,7.511445 -8.012727,7.511445 -4.412758,0 -8.012047,-3.374525 -8.012047,-7.511445 z"
       style="fill:#1b1918;fill-rule:evenodd;stroke-width:0.730199"
       id="path798" />
    <path
       d="m 42.11368,5.624685 c -7.387579,2.027102 -5.332041,6.565794 -3.258698,9.497257 6.8871,-3.612276 2.582947,-4.625651 3.258698,-9.497257 z"
       style="fill:#e30016;fill-rule:evenodd;stroke-width:0.730199"
       id="path800" />
    <path
       d="m 93.312598,41.785198 -0.29013,9.19899 h -7.250092 c -10.755331,0 -19.528053,-8.22408 -19.528053,-18.306705 0,-10.084185 8.772722,-18.306629 19.528053,-18.306629 h 58.869354 v 9.198774 H 85.772376 c -5.350211,0 -9.714624,4.091462 -9.714624,9.107855 0,5.016464 4.364413,9.107715 9.714624,9.107715 z"
       style="fill:#e30016;fill-rule:evenodd;stroke-width:0.730199"
       id="path802" />
    <path
       d="m 135.02801,26.306318 h 9.61968 v 7.982426 h 6.43345 V 14.416311 h 9.6193 v 36.299927 h -9.6193 v -8.9297 h -6.43345 v 8.9297 h -9.61968 z"
       style="fill:#2e77ae;fill-rule:evenodd;stroke-width:0.730199"
       id="path804" />
    <path
       d="m 217.11194,39.324793 v 8.764975 h 0.40582 c 0.24053,0 0.45108,-0.0848 0.63141,-0.25373 0.18018,-0.1689 0.27069,-0.36628 0.27069,-0.59188 V 40.29716 c 0,-0.253656 -0.10533,-0.479187 -0.31577,-0.676503 -0.2105,-0.197248 -0.45132,-0.295868 -0.72162,-0.295868 z m 1.44306,-2.621101 c 1.14251,0 2.03722,0.296008 2.6834,0.887746 0.6462,0.591663 0.9696,1.339146 0.9696,2.240678 v 7.581222 c 0,0.95795 -0.30085,1.7477 -0.90193,2.36751 -0.60112,0.61987 -1.51856,0.93002 -2.75107,0.93002 h -0.45093 -4.78041 V 26.57122 h 0.45107 3.33721 v 10.132472 z m -33.25708,10.794196 c 0,0.19718 0.0603,0.34529 0.18042,0.44391 0.12028,0.0986 0.25559,0.17611 0.40589,0.23252 0.21043,-0.0283 0.38336,-0.0988 0.51859,-0.21138 0.13521,-0.11276 0.20294,-0.26774 0.20294,-0.46505 V 29.868677 c 0,-0.197329 -0.0678,-0.352285 -0.20294,-0.465047 -0.13523,-0.112544 -0.29309,-0.183114 -0.47348,-0.211303 -0.1503,0.02821 -0.29308,0.09863 -0.42847,0.211303 -0.1353,0.112757 -0.20294,0.26787 -0.20294,0.465047 z m -3.78814,-17.629206 c 0,-0.197328 -0.0677,-0.352285 -0.203,-0.465047 -0.13532,-0.112709 -0.29309,-0.183113 -0.47349,-0.211304 -0.15021,0.02821 -0.29324,0.09876 -0.42838,0.211304 -0.13522,0.112757 -0.20303,0.267871 -0.20303,0.465047 v 17.629206 c 0,0.19718 0.0603,0.34529 0.18046,0.44391 0.1202,0.0986 0.25552,0.17611 0.40582,0.23252 0.21051,-0.0283 0.38328,-0.0987 0.51858,-0.21138 0.13538,-0.11276 0.20303,-0.26774 0.20303,-0.46505 z m 0,20.630726 c -0.39089,0.14103 -0.75925,0.25387 -1.10489,0.3383 -0.34563,0.0847 -0.67062,0.099 -0.96966,0.12689 l -0.451,0.0422 c -0.77816,0.0725 -1.40565,-0.28173 -1.87159,-0.76091 -0.46587,-0.47905 -0.69891,-1.07099 -0.69891,-1.77564 V 28.558162 c 0,-0.704569 0.17294,-1.240171 0.51866,-1.606455 0.34564,-0.366352 0.89438,-0.549599 1.64602,-0.549599 h 0.45092 c 0.33072,0 0.70653,0.03528 1.12744,0.105704 0.42084,0.07049 0.87193,0.176167 1.35301,0.317006 v -0.609055 h 0.45093 3.33721 v 0.609055 c 0.48111,-0.140841 0.92471,-0.24652 1.33039,-0.317006 0.40591,-0.0704 0.75918,-0.105704 1.05978,-0.105704 h 0.45101 c 0.78172,0 1.35295,0.183247 1.71368,0.549599 0.36072,0.366284 0.5412,0.902028 0.5412,1.606455 v 19.912026 c 0,0.7045 -0.23306,1.29659 -0.69892,1.77563 -0.46593,0.47919 -1.09387,0.64618 -1.87159,0.71878 l -0.451,0.0422 c -0.30054,0.028 -0.62401,-0.0844 -0.96966,-0.16903 -0.34564,-0.0844 -0.71399,-0.19725 -1.10489,-0.33829 v 0.64144 h -0.45093 -3.33721 z M 169.14976,29.699645 c 0,-0.19725 -0.0678,-0.345287 -0.20304,-0.443839 -0.13532,-0.09863 -0.29316,-0.162192 -0.47348,-0.190329 -0.15039,0.02813 -0.29322,0.0917 -0.42837,0.190329 -0.13524,0.09854 -0.20305,0.246654 -0.20305,0.443839 v 7.017834 h 1.30791 z m -5.09613,-0.845611 c 0,-0.845467 0.43608,-1.479624 1.30785,-1.902321 0.87176,-0.42277 1.83396,-0.634154 2.88628,-0.634154 h 0.45092 c 0.0302,0 0.0677,0 0.11281,0 0.0451,0 0.0978,-0.0014 0.15785,0 0.99214,0.02646 1.9017,0.253815 2.72842,0.67643 0.82675,0.422629 1.2402,1.042856 1.2402,1.860045 v 10.484543 h -5.09606 v 8.286141 c 0,0.19718 0.0602,0.34529 0.18047,0.44391 0.12015,0.0987 0.25542,0.17617 0.40582,0.23247 0.21048,-0.0281 0.38329,-0.0987 0.51859,-0.21131 0.13537,-0.11268 0.20304,-0.26773 0.20304,-0.46504 v -5.58049 h 0.45093 3.33721 v 6.4683 c 0,0.76085 -0.41345,1.33873 -1.2402,1.73329 -0.82672,0.39463 -1.73628,0.60764 -2.72842,0.63423 -0.0601,9.8e-4 -0.1128,0 -0.15785,0 -0.0451,0 -0.0829,-0.002 -0.11281,0 l -0.45092,0.0423 c -1.04743,0.0982 -2.01444,-0.2396 -2.88628,-0.63415 -0.87185,-0.39463 -1.30785,-0.98651 -1.30785,-1.77563 z m 35.84448,21.813794 V 29.868682 c 0,-0.225465 -0.0747,-0.408701 -0.22354,-0.5496 -0.14893,-0.140762 -0.32286,-0.225465 -0.52143,-0.253601 -0.1658,0.02813 -0.32311,0.11284 -0.47191,0.253601 -0.14879,0.140896 -0.22347,0.324359 -0.22347,0.5496 v 20.799146 h -4.22172 V 26.57122 h 0.49678 3.72494 v 0.465046 c 0.62906,-0.197302 1.19199,-0.345284 1.68854,-0.443908 0.49672,-0.09854 0.92721,-0.147977 1.29133,-0.147977 h 0.49671 c 0.6952,0 1.21703,0.169194 1.5645,0.507325 0.0762,0.07409 0.1442,0.158075 0.20369,0.251196 l 0.44655,-0.166628 c 0.62907,-0.197302 1.19207,-0.345283 1.68862,-0.443909 0.49664,-0.09854 0.92714,-0.147976 1.29133,-0.147976 h 0.49664 c 0.6952,0 1.21703,0.169193 1.56456,0.507324 0.34746,0.337933 0.52144,0.874101 0.52144,1.606454 v 22.109661 h -4.12224 V 29.868682 c 0,-0.225465 -0.0746,-0.408701 -0.22353,-0.5496 -0.14895,-0.140762 -0.32287,-0.225465 -0.52146,-0.253601 -0.16569,0.02813 -0.32308,0.11284 -0.47189,0.253601 -0.14879,0.140896 -0.22348,0.324359 -0.22348,0.5496 v 20.799146 z"
       style="fill:#1b1918;fill-rule:evenodd;stroke-width:0.730199"
       id="path1408" />
    <path
       d="m 97.063788,48.038308 c 0.03,0 0.0525,0 0.0674,0 0.0151,0 0.0374,0 0.0673,0 0.03,0.028 0.0598,0.042 0.0898,0.042 0.23952,-0.056 0.41163,-0.18226 0.51632,-0.3788 0.10483,-0.19634 0.15726,-0.56105 0.15726,-1.09411 V 26.61682 h 0.44882 8.395252 v 24.030698 h -0.44895 -3.32213 V 29.225972 h -1.30188 v 17.928606 c 0,1.12219 -0.28448,2.00604 -0.85314,2.65129 -0.56851,0.64526 -1.391557,0.96806 -2.469142,0.96806 l -0.44883,0.0419 c -0.14979,-0.028 -0.29926,-0.0489 -0.44904,-0.0632 -0.14972,-0.0141 -0.29926,-0.0349 -0.44897,-0.0632 -0.0597,0 -0.12721,-0.007 -0.20199,-0.0208 -0.0748,-0.0141 -0.15709,-0.0211 -0.24685,-0.0211 v -2.60934 z m 13.247192,-7.196632 c 0,-0.897788 0.075,-1.599246 0.22453,-2.104306 0.14971,-0.505064 0.56866,-0.981986 1.25701,-1.430842 0.38909,-0.224529 0.87546,-0.462997 1.4592,-0.715527 0.58352,-0.252399 1.3092,-0.533058 2.17719,-0.841653 v -6.018244 c 0,-0.196393 -0.0673,-0.350799 -0.20198,-0.462997 -0.13469,-0.112198 -0.29173,-0.182258 -0.47137,-0.210475 -0.17959,0.02821 -0.33667,0.09828 -0.47136,0.210475 -0.1347,0.112199 -0.20213,0.266588 -0.20213,0.462997 v 5.050187 h -0.44883 -3.32227 v -5.891839 c 0,-0.84179 0.4415,-1.473117 1.3245,-1.893835 0.88293,-0.420931 1.84807,-0.631327 2.89556,-0.631327 h 0.44905 c 0.0299,0 0.0525,0 0.0674,0 0.0148,0 0.0374,0 0.0673,0 1.01747,0.02801 1.94535,0.252533 2.78348,0.67339 0.83806,0.420932 1.25701,1.03798 1.25701,1.851772 v 21.758066 h -0.44898 -3.27739 v -0.37864 c -0.56851,0.16839 -1.0699,0.29445 -1.50392,0.37864 -0.43398,0.0843 -0.81552,0.12642 -1.14487,0.12642 l -0.44881,0.0419 c -0.68835,-0.028 -1.19729,-0.20318 -1.52641,-0.52599 -0.32912,-0.32266 -0.49392,-0.75059 -0.49392,-1.28365 z m 5.11793,-1.010128 c 0,-0.196392 -0.0673,-0.350657 -0.20199,-0.462852 -0.13469,-0.112329 -0.29173,-0.182392 -0.47136,-0.210395 -0.17959,0.02801 -0.33668,0.09807 -0.47138,0.210395 -0.13468,0.112199 -0.20212,0.266454 -0.20212,0.462852 v 7.61749 c 0,0.1684 0.0674,0.30874 0.20212,0.42093 0.13469,0.11213 0.27673,0.19635 0.4265,0.25254 0.20966,-0.0283 0.38154,-0.10509 0.51624,-0.2314 0.13468,-0.12628 0.20199,-0.27366 0.20199,-0.44207 z m 14.59422,-1.809495 c 0.41895,0.1402 0.74076,0.350588 0.96506,0.631116 0.22453,0.280597 0.38177,0.589261 0.47137,0.925992 0.03,0.08399 0.0525,0.182258 0.0675,0.294668 0.0151,0.112115 0.0226,0.210261 0.0226,0.294593 v 7.869886 c 0,0.028 0,0.063 0,0.10508 0,0.0423 0,0.0772 0,0.10533 -0.0598,0.61725 -0.31413,1.1713 -0.76316,1.66244 -0.44898,0.49078 -1.12233,0.73631 -2.02033,0.73631 h -0.44893 -5.61184 V 26.61682 h 0.44882 5.61184 c 0.68849,0 1.32443,0.259533 1.90817,0.778518 0.58351,0.51899 0.87531,1.115321 0.87531,1.788782 v 6.691495 c 0,0.056 0,0.112199 0,0.168391 0,0.056 -0.0148,0.112116 -0.0448,0.168176 -0.0302,0.36487 -0.16478,0.715529 -0.40408,1.052187 -0.23954,0.336731 -0.59862,0.589263 -1.07744,0.757662 z m -3.09782,10.016255 c 0.23938,0 0.44903,-0.0842 0.62861,-0.25254 0.1794,-0.16833 0.26925,-0.36473 0.26925,-0.58905 v -7.028299 c 0,-0.224531 -0.0899,-0.42086 -0.26925,-0.589261 -0.17959,-0.168337 -0.38924,-0.252532 -0.62861,-0.252532 h -0.4041 v 8.711662 z m 0.89786,-18.012607 c 0,-0.02801 0,-0.05619 0,-0.0842 -0.0299,-0.168336 -0.1197,-0.322592 -0.26927,-0.462924 -0.14969,-0.140201 -0.31427,-0.224397 -0.49383,-0.252613 -0.0302,0 -0.06,0 -0.0899,0 h -0.44904 v 7.491291 h 0.40409 c 0.17964,0 0.35907,-0.07014 0.53864,-0.210475 0.17965,-0.1402 0.28447,-0.294594 0.31435,-0.462782 0.03,-0.02821 0.0449,-0.05619 0.0449,-0.08435 0,-0.02806 0,-0.05606 0,-0.08406 z"
       style="fill:#1b1918;fill-rule:evenodd;stroke-width:0.730199"
       id="path1412" />
    <path
       d="m 164.52485,14.380469 v 9.154446 h 56.42922 v -9.154446 z"
       style="fill:#e30016;fill-rule:evenodd;stroke-width:0.730199"
       id="path1418" />
  </g>
</svg>
